<svg xmlns="http://www.w3.org/2000/svg" viewBox="0 0 256 256" xml:space="preserve"><path fill="#72C2E9" d="M228.75 52.893H27.25v-42.5a5 5 0 0 1 5-5h191.5a5 5 0 0 1 5 5v42.5z"/><circle fill="#EFEFEF" cx="196" cy="29.143" r="12"/><path fill="#EFEFEF" d="M218.75 250.608H37.25c-5.523 0-10-4.477-10-10V52.893h201.5v187.715c0 5.523-4.477 10-10 10z"/><path fill="#F0C020" d="M193.983 193.445C202.819 180.579 208 165.006 208 148.218c0-44.183-35.817-80-80-80s-80 35.817-80 80 35.817 80 80 80c16.788 0 32.36-5.181 45.227-14.017l3.638 3.639c5.732 5.732 15.025 5.732 20.757 0 5.732-5.732 5.732-15.025 0-20.757l-3.639-3.638z"/><path fill="#F8E5B0" d="M128 220.685c-40.109 0-72.467-32.348-72.467-72.467 0-19.387 7.53-37.594 21.202-51.265a2.498 2.498 0 0 1 3.535 0 2.498 2.498 0 0 1 0 3.535c-12.728 12.728-19.737 29.678-19.737 47.73 0 37.347 30.112 67.467 67.467 67.467 13.702 0 26.876-4.059 38.1-11.738a2.5 2.5 0 1 1 2.824 4.126c-12.059 8.251-26.21 12.612-40.924 12.612zm45.492-19.203a2.5 2.5 0 0 1 .149-3.532 68.875 68.875 0 0 0 2.089-2.002 2.498 2.498 0 0 1 3.535 0 2.498 2.498 0 0 1 0 3.535 71.716 71.716 0 0 1-2.241 2.148 2.498 2.498 0 0 1-3.532-.149z"/><path fill="#EFEFEF" d="M186.047 136.327c-6.565 4.471-16.118 2.977-20.671-4.482-5.647 9.306-19.2 9.353-24.918 0-5.682 9.33-19.235 9.33-24.918 0-5.718 9.353-19.271 9.306-24.918 0-4.518 7.435-14.094 8.965-20.671 4.482 5.506-27.023 29.4-47.353 58.047-47.353s52.543 20.329 58.049 47.353z"/><path fill="#72C2E9" d="M187.247 148.221c0 32.718-26.529 59.235-59.247 59.235s-59.247-26.518-59.247-59.235c0-4.082.424-8.047 1.2-11.894 6.576 4.482 16.153 2.953 20.671-4.482 5.647 9.306 19.2 9.353 24.918 0 5.682 9.33 19.235 9.33 24.918 0 5.718 9.353 19.271 9.306 24.918 0 4.553 7.459 14.106 8.953 20.671 4.482a60.087 60.087 0 0 1 1.198 11.894z"/><circle fill="#EFEFEF" cx="187.313" cy="207.529" r="5.045"/><path fill="#F0C020" d="M101.535 5.393h52.93v31.5h-52.93z"/><path fill="#FFF" d="M219 243.893H55.949a2.5 2.5 0 1 1 0-5H216.5V65.444a2.5 2.5 0 1 1 5 0v175.949a2.5 2.5 0 0 1-2.5 2.5zm-173.051 0H38a2.5 2.5 0 1 1 0-5h7.949a2.5 2.5 0 1 1 0 5z"/><path d="M54.91 18.85h-4.33a2.5 2.5 0 0 0 0 5h4.33a2.5 2.5 0 0 0 0-5zM74.91 18.85h-4.33a2.5 2.5 0 0 0 0 5h4.33a2.5 2.5 0 0 0 0-5zM54.91 31.18h-4.33c-1.38 0-2.5 1.13-2.5 2.5a2.5 2.5 0 0 0 2.5 2.5h4.33a2.5 2.5 0 0 0 2.5-2.5c0-1.37-1.12-2.5-2.5-2.5zM74.91 31.18h-4.33c-1.38 0-2.5 1.13-2.5 2.5a2.5 2.5 0 0 0 2.5 2.5h4.33a2.5 2.5 0 0 0 2.5-2.5c0-1.37-1.12-2.5-2.5-2.5zM128 116.408c4.686 0 8.498-3.812 8.498-8.498s-3.812-8.498-8.498-8.498-8.498 3.812-8.498 8.498 3.812 8.498 8.498 8.498zm0-11.996c1.929 0 3.498 1.569 3.498 3.498s-1.569 3.498-3.498 3.498-3.498-1.569-3.498-3.498 1.569-3.498 3.498-3.498zM103.378 128.298c4.686 0 8.498-3.812 8.498-8.498s-3.812-8.498-8.498-8.498-8.498 3.812-8.498 8.498 3.812 8.498 8.498 8.498zm0-11.996c1.929 0 3.498 1.569 3.498 3.498s-1.569 3.498-3.498 3.498-3.498-1.569-3.498-3.498 1.569-3.498 3.498-3.498zM152.622 128.298c4.686 0 8.498-3.812 8.498-8.498s-3.812-8.498-8.498-8.498-8.498 3.812-8.498 8.498 3.812 8.498 8.498 8.498zm0-11.996c1.929 0 3.498 1.569 3.498 3.498s-1.569 3.498-3.498 3.498-3.498-1.569-3.498-3.498 1.569-3.498 3.498-3.498z"/><path d="M189.742 148.216c0-34.25-27.933-61.742-61.742-61.742s-61.742 27.49-61.742 61.742c0 33.883 27.596 61.742 61.742 61.742 34.054 0 61.742-27.772 61.742-61.742zm-19.461 37.789a11.24 11.24 0 0 1-4.462-4.177c-.977-1.599-3.3-1.594-4.271.007-4.408 7.27-15.038 7.32-19.52-.008-.976-1.597-3.298-1.589-4.268.004-4.45 7.307-15.079 7.291-19.52 0-.973-1.599-3.293-1.599-4.268-.004-4.493 7.345-15.122 7.26-19.52.008-.974-1.604-3.3-1.604-4.273-.003a11.245 11.245 0 0 1-4.456 4.177 56.762 56.762 0 0 1-11.61-20.056 19.608 19.608 0 0 0 8.622-5.703c7.958 9.025 22.195 9.034 30.168-.011 7.977 9.044 22.218 9.043 30.194 0 7.977 9.048 22.217 9.035 30.173.005a19.65 19.65 0 0 0 8.621 5.696 56.732 56.732 0 0 1-11.61 20.065zm5.124-31.268c-.975-1.6-3.299-1.596-4.271.004-5.89 9.696-19.977 9.718-25.902-.003-.973-1.595-3.296-1.598-4.27 0-5.923 9.719-20.015 9.699-25.926 0-.973-1.596-3.297-1.597-4.27 0-5.927 9.726-20.015 9.694-25.902.003-.975-1.604-3.304-1.601-4.275.002-1.844 3.044-4.582 5.242-7.834 6.382a56.642 56.642 0 0 1-1.499-12.909c0-2.707.203-5.416.585-8.091 6.463 2.552 13.957 1.021 18.782-4.157 6.644 7.12 18.163 7.213 24.914-.009 6.705 7.183 18.222 7.178 24.923 0 6.718 7.186 18.233 7.171 24.917.006 4.829 5.178 12.305 6.715 18.78 4.159.382 2.676.585 5.384.585 8.091 0 4.437-.528 8.75-1.496 12.896-3.247-1.139-5.986-3.333-7.841-6.374zM128 91.474c26.265 0 49.19 18.236 55.202 43.608-5.414 2.664-12.272 1.061-15.691-4.539-.976-1.6-3.3-1.596-4.271.005-4.682 7.716-15.914 7.737-20.647-.007-.974-1.593-3.293-1.597-4.269.003-4.713 7.738-15.944 7.722-20.647 0-.972-1.595-3.29-1.602-4.269-.003-4.726 7.732-15.958 7.734-20.647.007-.974-1.604-3.301-1.602-4.274-.001-3.39 5.58-10.267 7.204-15.688 4.536C78.81 109.71 101.735 91.474 128 91.474zm-38.659 98.223a15.98 15.98 0 0 0 2.974-2.464c6.368 6.717 17.311 6.813 23.788-.009 6.422 6.777 17.369 6.781 23.795 0 6.466 6.811 17.41 6.739 23.789.007.893.943 1.89 1.767 2.975 2.464-10.141 9.458-23.733 15.263-38.661 15.263s-28.519-5.803-38.66-15.261zM114.75 19.643h26.5a2.5 2.5 0 1 0 0-5h-26.5a2.5 2.5 0 1 0 0 5zM114.75 29.143h26.5a2.5 2.5 0 1 0 0-5h-26.5a2.5 2.5 0 1 0 0 5z"/><circle cx="80.39" cy="5.39" r="2.5"/><path d="M231.25 10.39c0-4.13-3.37-7.5-7.5-7.5H90.39a2.5 2.5 0 0 0 0 5h8.65v29a2.49 2.49 0 0 0 2.49 2.5h20.44a2.499 2.499 0 0 0 .01-5h-17.94V7.89h47.93v26.5h-10a2.51 2.51 0 0 0-2.51 2.5c0 1.38 1.13 2.5 2.51 2.5h12.49a2.504 2.504 0 0 0 2.51-2.5v-29h66.78c1.38.01 2.5 1.13 2.5 2.5v40H29.75v-40c0-1.37 1.12-2.49 2.5-2.5h38.14a2.5 2.5 0 0 0 0-5H32.25c-4.13 0-7.5 3.37-7.5 7.5v230.22c0 6.89 5.61 12.5 12.5 12.5h181.5c6.89 0 12.5-5.61 12.5-12.5v-64.15a2.5 2.5 0 0 0-5 0v64.15c-.01 4.12-3.37 7.49-7.5 7.5H37.25c-4.13-.01-7.49-3.38-7.5-7.5V55.39h196.5v101.07a2.5 2.5 0 0 0 5 0V10.39z"/><circle cx="228.75" cy="166.46" r="2.5"/><path d="M128 65.718c-45.491 0-82.5 37.009-82.5 82.5s37.009 82.5 82.5 82.5c16.046 0 31.527-4.591 44.91-13.298l2.188 2.188c6.698 6.698 17.595 6.697 24.292 0 6.698-6.697 6.698-17.595 0-24.292l-2.188-2.188c8.707-13.382 13.298-28.864 13.298-44.91 0-45.491-37.009-82.5-82.5-82.5zm64.215 129.494 3.639 3.639c4.759 4.76 4.759 12.462 0 17.222-4.759 4.759-12.462 4.759-17.221 0l-3.639-3.639a2.5 2.5 0 0 0-3.183-.293c-12.934 8.883-28.084 13.578-43.812 13.578-42.734 0-77.5-34.766-77.5-77.5s34.766-77.5 77.5-77.5 77.5 34.766 77.5 77.5c0 15.728-4.695 30.877-13.578 43.812a2.5 2.5 0 0 0 .294 3.181z"/><path d="M181.978 212.864c2.942 2.942 7.728 2.942 10.67 0s2.942-7.729 0-10.67c-2.942-2.942-7.729-2.942-10.671 0s-2.941 7.728.001 10.67zm7.135-7.135a2.548 2.548 0 0 1 0 3.599 2.547 2.547 0 0 1-3.599 0 2.55 2.55 0 0 1 0-3.6 2.55 2.55 0 0 1 3.599.001zM131.97 39.39c1.37 0 2.49-1.12 2.49-2.5s-1.12-2.5-2.49-2.5a2.51 2.51 0 0 0-2.51 2.5c0 1.38 1.13 2.5 2.51 2.5zM210.5 29.14c0-7.99-6.51-14.49-14.5-14.5-7.99.01-14.5 6.51-14.5 14.5 0 8 6.51 14.5 14.5 14.5s14.5-6.5 14.5-14.5zm-24 0c.008-4.364 2.979-8.042 7-9.15v5.571a2.5 2.5 0 0 0 5 0V19.99c4.021 1.108 6.991 4.786 7 9.15-.01 5.23-4.27 9.49-9.5 9.5-5.23-.01-9.49-4.27-9.5-9.5z"/></svg>